<svg width="109" height="24" viewBox="0 0 109 24" fill="none" xmlns="http://www.w3.org/2000/svg">
<path id="Combined Shape" fill-rule="evenodd" clip-rule="evenodd" d="M25.2389 0.459225V2.32933C26.3156 0.724162 27.9575 0 30.0572 0C31.0456 0 31.8214 0.1413 32.4572 0.370912L31.7684 4.94126C31.0103 4.60638 29.9159 4.39443 28.9805 4.39443C26.8448 4.39443 25.3802 5.70004 25.3802 8.24132V17.56H20.7745V0.459225H25.2389ZM4.3591 9.00031C4.3591 11.7006 6.1416 13.7127 8.75353 13.7127C11.4714 13.7127 13.1656 11.6122 13.1656 9.00031C13.1656 6.38838 11.4714 4.28796 8.75353 4.28796C6.1416 4.28796 4.3591 6.30007 4.3591 9.00031ZM4.4997 2.3472C5.61243 0.952573 7.25363 0.00021195 9.59992 0.00021195C14.3306 0.00021195 17.8949 3.86547 17.8949 9.00031C17.8949 14.1366 14.3306 18.0004 9.61828 18.0004C7.32428 18.0004 5.70004 17.101 4.58801 15.7771V23.9993L0 24V0.45873H4.4997V2.3472ZM42.3067 13.7127C39.7118 13.7127 37.771 11.7712 37.771 9.00031C37.771 6.22942 39.7118 4.28796 42.3067 4.28796C44.901 4.28796 46.8594 6.22942 46.8594 9.00031C46.8594 11.7712 44.901 13.7127 42.3067 13.7127ZM42.3067 0.00021195C36.9939 0.00021195 33.077 3.8471 33.077 9.00031C33.077 14.1535 36.9939 18.0004 42.3067 18.0004C47.6359 18.0004 51.5718 14.1535 51.5718 9.00031C51.5718 3.8471 47.6359 0.00021195 42.3067 0.00021195ZM61.2984 6.84789L62.8152 7.07679C66.5215 7.64199 68.5866 9.30015 68.5866 12.1947C68.5866 15.7243 65.6921 18.0007 60.7332 18.0007C58.4038 18.0007 55.3511 17.5598 53.127 15.9886L54.9441 12.4949C56.4094 13.4657 58.1919 14.1715 60.7685 14.1715C62.9035 14.1715 63.9273 13.5709 63.9273 12.5656C63.9273 11.7362 63.0632 11.2769 61.0864 10.995L59.6918 10.8008C55.7382 10.2532 53.7798 8.52441 53.7798 5.61222C53.7798 2.10021 56.4977 0.018157 60.9981 0.018157C63.7337 0.018157 65.8687 0.528956 68.1458 1.64169L66.5922 5.22365C65.2336 4.55318 63.0632 3.84738 61.1387 3.82972C59.3915 3.82972 58.5091 4.4472 58.5091 5.38261C58.5091 6.371 59.7448 6.61828 61.2984 6.84789ZM80.0948 13.7127C77.4829 13.7127 75.7004 11.7006 75.7004 9.00031C75.7004 6.30007 77.4829 4.28796 80.0948 4.28796C82.8127 4.28796 84.5069 6.38838 84.5069 9.00031C84.5069 11.6122 82.8127 13.7127 80.0948 13.7127ZM80.9412 0.00021195C78.5949 0.00021195 76.9537 0.952573 75.841 2.3472V0.45873H71.3413V23.9993H75.9293V15.7771C77.0413 17.101 78.6655 18.0004 80.9595 18.0004C85.6719 18.0004 89.2362 14.1366 89.2362 9.00031C89.2362 3.86547 85.6719 0.00021195 80.9412 0.00021195ZM95.769 9.00031C95.769 11.6122 97.4808 13.7127 100.18 13.7127C102.811 13.7127 104.592 11.7006 104.592 9.00031C104.592 6.30007 102.811 4.28796 100.18 4.28796C97.4808 4.28796 95.769 6.38838 95.769 9.00031ZM104.451 2.3472V0.45873H108.952V17.5596H104.451V15.6711C103.34 17.048 101.681 18.0004 99.3333 18.0004C94.6216 18.0004 91.0566 14.1366 91.0566 9.00031C91.0566 3.86547 94.6216 0.00021195 99.3333 0.00021195C101.681 0.00021195 103.321 0.952573 104.451 2.3472Z" fill="white"/>
</svg>
